<svg xmlns="http://www.w3.org/2000/svg" viewBox="0 0 1024 1024" fill-rule="evenodd"><path d="M1006.51 876.52a217.49 217.49 0 0 1-130 130C821.19 1024 769.79 1024 667 1024H357c-102.8 0-154.2 0-209.53-17.5a217.4 217.4 0 0 1-75.28-46.57 217.43 217.43 0 0 1-54.71-83.41C0 821.19 0 769.79 0 667V357c0-102.8 0-154.2 17.49-209.53A217.43 217.43 0 0 1 72.26 64a217.41 217.41 0 0 1 75.21-46.51C202.81 0 254.21 0 357 0h310c102.8 0 154.2 0 209.53 17.49a217.5 217.5 0 0 1 130 130C1024 202.81 1024 254.21 1024 357v310c0 102.79 0 154.19-17.49 209.52zM960 376.38c0-89.95 0-134.92-15.31-183.34A190.31 190.31 0 0 0 831 79.31l-1.77-.54C512 156.16 512 512 512 512s0 355.84-317.18 433.23C242.56 960 287.53 960 376.38 960h271.24c90 0 134.92 0 183.34-15.31A190.3 190.3 0 0 0 944.69 831C960 782.54 960 737.57 960 647.62V376.38z"/></svg>