<svg xmlns="http://www.w3.org/2000/svg" viewBox="0 0 1024 1024"><defs><style>.a{fill-rule:evenodd;}</style></defs><title>tobiha-logo</title><path class="a" d="M1006.51,876.52a217.49,217.49,0,0,1-130,130C821.19,1024,769.79,1024,667,1024H357c-102.8,0-154.2,0-209.53-17.5a217.36,217.36,0,0,1-63.41-36.13l-0.8-.66q-2.42-2-4.77-4.06l-0.64-.56q-5.43-4.8-10.52-9.94h0q-2.46-2.49-4.84-5.05l-0.59-.64q-2.22-2.41-4.37-4.89l-0.36-.41a217.38,217.38,0,0,1-39.68-67.63C0,821.19,0,769.79,0,667V357c0-102.8,0-154.2,17.49-209.53A217.37,217.37,0,0,1,48,91.23h0q4.53-6,9.45-11.71L57.91,79q2.29-2.62,4.65-5.17l0.31-.34Q68,68,73.48,62.88l0.34-.31Q76.37,60.2,79,57.91l0.52-.46a217.38,217.38,0,0,1,68-40C202.81,0,254.21,0,357,0H667c102.8,0,154.2,0,209.53,17.49a217.5,217.5,0,0,1,130,130C1024,202.81,1024,254.21,1024,357V667C1024,769.79,1024,821.19,1006.51,876.52ZM960,376.38c0-89.95,0-134.92-15.31-183.34A190.31,190.31,0,0,0,831,79.31c-8.07-2.55-16-4.67-24.15-6.44C512,169.11,512,512,512,512s0,342.89-294.81,439.13C257.7,960,301.42,960,376.38,960H647.62c90,0,134.92,0,183.34-15.31A190.3,190.3,0,0,0,944.69,831C960,782.54,960,737.57,960,647.62V376.38Z" transform="translate(0)"/></svg>